<svg xmlns="http://www.w3.org/2000/svg" viewBox="0 0 200.58 218.68"><defs><style>.cls-1{fill:#fff;}.cls-2{fill:#efefef;}</style></defs><g id="Layer_2" data-name="Layer 2"><g id="Layer_1-2" data-name="Layer 1"><rect class="cls-1" x="78.61" y="144.41" width="62.79" height="7.56" rx="3.78"/><path d="M137.62,152.47H82.39a4.28,4.28,0,1,1,0-8.56h55.23a4.28,4.28,0,1,1,0,8.56Zm-55.23-7.56a3.28,3.28,0,1,0,0,6.56h55.23a3.28,3.28,0,1,0,0-6.56Z"/><line class="cls-1" x1="117.16" y1="144.41" x2="102.25" y2="144.41"/><rect x="102.25" y="143.91" width="14.91" height="1"/><path class="cls-1" d="M116.35,177l.62,32.32V217a.47.47,0,0,0,.47.47h25.69a.46.46,0,0,0,.47-.5c-.12-1.14-1.37-3.86-10.35-4.35l-.23-.07a5.39,5.39,0,0,1-2.51-1.74,5.6,5.6,0,0,1-1.26-3.72l-.56-33.42A19.23,19.23,0,0,1,116.35,177Z"/><path d="M143.13,218H117.44a1,1,0,0,1-1-1v-7.67L115.85,177a.52.52,0,0,1,.17-.38.47.47,0,0,1,.4-.12,18.9,18.9,0,0,0,12-3.27.52.52,0,0,1,.51,0,.49.49,0,0,1,.27.44l.56,33.42a5.07,5.07,0,0,0,1.15,3.41,4.82,4.82,0,0,0,2.28,1.58l.16,0c9,.51,10.59,3.22,10.75,4.79a1,1,0,0,1-.24.74A1,1,0,0,1,143.13,218Zm-26.27-40.41.61,31.76V217l25.66,0c-.11-.74-1.08-3.37-9.91-3.85l-.11,0-.24-.07a6,6,0,0,1-2.75-1.9,6.09,6.09,0,0,1-1.37-4.06l-.54-32.5A19.86,19.86,0,0,1,116.86,177.54Z"/><path d="M117,212.6V217a.47.47,0,0,0,.47.47h25.69a.46.46,0,0,0,.47-.5c-.12-1.14-1.37-3.86-10.35-4.35l-.23-.07a5.39,5.39,0,0,1-2.51-1.74h0S126.21,215.73,117,212.6Z"/><path d="M143.13,218H117.44a1,1,0,0,1-1-1V211.9l.66.23c8.78,3,12.83-1.48,13-1.67l.15-.17h.47l.15.19a4.87,4.87,0,0,0,2.28,1.57l.16,0c9,.51,10.59,3.22,10.75,4.79a1,1,0,0,1-.24.74A1,1,0,0,1,143.13,218Zm-25.66-4.66V217l25.66,0c-.11-.74-1.08-3.37-9.91-3.85l-.11,0-.24-.07a5.78,5.78,0,0,1-2.38-1.5C129.23,212.64,125,215.6,117.47,213.29Z"/><path d="M117,204.07s10.4,3.46,12.24,1.42V203L116.77,202Z"/><path class="cls-1" d="M102.59,177,102,209.31V217a.47.47,0,0,1-.47.47H75.81a.46.46,0,0,1-.47-.5c.12-1.14,1.36-3.86,10.35-4.35l.22-.07a5.34,5.34,0,0,0,2.51-1.74,5.6,5.6,0,0,0,1.27-3.72l.55-33.42A19.25,19.25,0,0,0,102.59,177Z"/><path d="M101.49,218H75.81a1,1,0,0,1-.73-.32.94.94,0,0,1-.24-.73c.17-1.58,1.79-4.29,10.76-4.8l.16,0A4.87,4.87,0,0,0,88,210.48a5.11,5.11,0,0,0,1.16-3.4l.55-33.44a.51.51,0,0,1,.27-.44.52.52,0,0,1,.51,0,18.81,18.81,0,0,0,12,3.27.49.49,0,0,1,.4.12.52.52,0,0,1,.17.38l-.63,32.32V217A1,1,0,0,1,101.49,218Zm-10.76-43.4-.54,32.53a6.13,6.13,0,0,1-1.38,4A5.94,5.94,0,0,1,86.07,213l-.24.08-.12,0c-8.83.48-9.79,3.11-9.87,3.9l25.65-.05,0-7.64.62-31.77A19.86,19.86,0,0,1,90.73,174.55Z"/><path d="M102,212.6V217a.47.47,0,0,1-.47.47H75.81a.46.46,0,0,1-.47-.5c.12-1.14,1.36-3.86,10.35-4.35l.22-.07a5.34,5.34,0,0,0,2.51-1.74h0S92.73,215.73,102,212.6Z"/><path d="M101.49,218H75.81a1,1,0,0,1-.73-.32.94.94,0,0,1-.24-.73c.17-1.58,1.79-4.29,10.76-4.8l.16,0A4.87,4.87,0,0,0,88,210.48l.15-.19h.47l.15.17c.17.19,4.23,4.64,13,1.67l.66-.23V217A1,1,0,0,1,101.49,218Zm-13-6.44A5.72,5.72,0,0,1,86.07,213l-.36.1c-8.83.48-9.79,3.11-9.87,3.9l25.65-.05,0-3.67C93.91,215.6,89.7,212.64,88.45,211.51Z"/><path d="M102,204.07s-10.39,3.46-12.24,1.42V203l12.45-.95Z"/><path class="cls-1" d="M114.43,134.62v66.67c12.75,4.34,20.48,0,20.48,0l5-57.88c.54-15.34-10-18.82-10-18.82s-16.8-8.68-39.57,0c0,0-10.58,3.48-10,18.82l5,57.88s7.73,4.34,20.48,0V134.62"/><path d="M125.45,203.73a34.53,34.53,0,0,1-11.18-2l-.34-.11v-67h1v66.31c11,3.63,18.16.68,19.51,0l5-57.6c.52-14.77-9.59-18.28-9.69-18.31s-16.95-8.5-39.23,0c-.13,0-10.24,3.59-9.72,18.34l5,57.58c1.35.64,8.53,3.59,19.51,0V134.62h1v67l-.34.11c-12.81,4.36-20.56.15-20.88,0l-.23-.13,0-.26-5-57.88c-.29-8.12,2.53-12.93,4.94-15.54a14.21,14.21,0,0,1,5.43-3.8c22.7-8.65,39.79-.06,40,0a14.1,14.1,0,0,1,5.36,3.77c2.42,2.61,5.23,7.42,4.95,15.52l-5,58.16-.23.13A21,21,0,0,1,125.45,203.73Z"/><path d="M100.15,29S95,26.79,98.68,22.79a3.17,3.17,0,0,1,4.39,1"/><rect class="cls-1" x="34.69" y="126.94" width="29.3" height="91.1"/><path d="M64.49,218.54H34.19v-92.1h30.3Zm-29.3-1h28.3v-90.1H35.19Z"/><rect class="cls-1" x="63.99" y="126.94" width="29.3" height="91.1"/><path d="M93.8,218.54H63.49v-92.1H93.8Zm-29.31-1H92.8v-90.1H64.49Z"/><polygon points="34.69 131.79 63.99 161.97 93.3 178.06 93.3 126.94 34.69 126.94 34.69 131.79"/><path class="cls-1" d="M93.3,155.75h-22a.5.5,0,0,1,0-1h22a.5.5,0,1,1,0,1Z"/><path d="M93.3,197.45h-22a.5.5,0,0,1-.5-.5.51.51,0,0,1,.5-.5h22a.51.51,0,0,1,.5.5A.5.5,0,0,1,93.3,197.45Z"/><path class="cls-1" d="M64,162.47a.5.5,0,0,1-.5-.5v-35a.51.51,0,0,1,.5-.5.5.5,0,0,1,.5.5v35A.5.5,0,0,1,64,162.47Z"/><rect class="cls-1" x="130.71" y="126.94" width="29.3" height="91.1"/><path d="M160.51,218.54h-30.3v-92.1h30.3Zm-29.3-1h28.3v-90.1h-28.3Z"/><rect class="cls-1" x="160.01" y="126.94" width="29.3" height="91.1"/><path d="M189.81,218.54h-30.3v-92.1h30.3Zm-29.3-1h28.3v-90.1h-28.3Z"/><polygon points="130.71 131.79 160.01 161.97 189.31 178.06 189.31 126.94 130.71 126.94 130.71 131.79"/><path class="cls-1" d="M189.31,155.75H167.36a.5.5,0,0,1,0-1h21.95a.5.5,0,0,1,0,1Z"/><path d="M189.31,197.45H167.36a.5.5,0,0,1-.5-.5.5.5,0,0,1,.5-.5h21.95a.5.5,0,0,1,.5.5A.5.5,0,0,1,189.31,197.45Z"/><path class="cls-1" d="M160,162.47a.5.5,0,0,1-.5-.5v-35a.5.5,0,0,1,1,0v35A.5.5,0,0,1,160,162.47Z"/><path class="cls-1" d="M88.1,120.82c-2.65-1.37-4-53.86-4-53.86a11,11,0,0,1,7.6-12l14.64-4.6a11,11,0,0,1,6.61,0L127.63,55a11,11,0,0,1,7.6,12s-2,26.53-2.79,52.35C132.44,119.31,111.2,132.79,88.1,120.82Z"/><path d="M108.23,126.24a43.84,43.84,0,0,1-20.36-5C85.17,119.86,84,79.36,83.64,67a11.46,11.46,0,0,1,8-12.51l14.64-4.6a11.47,11.47,0,0,1,6.91,0l14.64,4.6A11.47,11.47,0,0,1,135.72,67c0,.24-2,26.78-2.78,52.3v.26l-.22.15A50.51,50.51,0,0,1,108.23,126.24Zm-19.88-5.85c21.31,11,41.27,0,43.6-1.36.74-25.46,2.76-51.84,2.78-52.11a10.48,10.48,0,0,0-7.25-11.49l-14.64-4.61a10.45,10.45,0,0,0-6.31,0L91.89,55.43a10.46,10.46,0,0,0-7.25,11.46C85.13,86.72,86.58,118.68,88.35,120.39Z"/><polyline class="cls-1" points="148.93 107.36 139.19 90.23 150.81 84.81 158.8 100.05"/><path d="M148.93,107.86a.5.5,0,0,1-.44-.25l-9.73-17.13a.47.47,0,0,1,0-.4.48.48,0,0,1,.26-.3l11.62-5.43a.5.5,0,0,1,.65.22l8,15.24a.5.5,0,0,1-.89.47l-7.76-14.82-10.7,5,9.47,16.65a.49.49,0,0,1-.19.68A.44.44,0,0,1,148.93,107.86Z"/><path class="cls-1" d="M151.63,104.84l-24.49,6.39a6.23,6.23,0,0,1-1.24.18c-1.13,0-4.63-.35-6.6.13a.56.56,0,0,0-.07,1.06c1,.4,2.63.66,2.91,1,0,0,.64.75-1,1.23-1.86.55-6.11,1.62-8.77,2a.47.47,0,0,0,.07.93A57.47,57.47,0,0,0,121,117l-.12.16c-2.53.72-7.26,1.84-9.79,2.29a.47.47,0,0,0,.08.93,64.3,64.3,0,0,0,9.64-.92.37.37,0,0,1,.05.11c-2.1.59-5.55,1.34-7.81,1.71a.47.47,0,0,0,.07.93,58.3,58.3,0,0,0,9.11-.91l.12.1a15.25,15.25,0,0,1-4.28,1.15c-.59.09-.47,1.09.12,1.06a72.52,72.52,0,0,0,8.6-1l2.82-.51,28.21-6a6.51,6.51,0,0,0,4.4-9.39l-3.46-6.6"/><path d="M118.21,124.13a1,1,0,0,1-1-.95,1.09,1.09,0,0,1,.15-.68,40.26,40.26,0,0,1-4.23.23.94.94,0,0,1-1-.89.93.93,0,0,1,.56-1c-.53,0-1.06,0-1.56,0A1,1,0,0,1,111,119c.93-.17,2.11-.41,3.37-.69-.67,0-1.34,0-2,0a1,1,0,0,1-1-.89,1,1,0,0,1,.81-1,88.39,88.39,0,0,0,8.71-2c.69-.2.76-.41.76-.41a5,5,0,0,0-1.34-.48c-.47-.13-1-.27-1.37-.42a1,1,0,0,1-.67-1,1.05,1.05,0,0,1,.8-1,23.37,23.37,0,0,1,5.77-.19l1,0a7.22,7.22,0,0,0,1.12-.16l24.47-6.4a.51.51,0,0,1,.61.36.5.5,0,0,1-.36.61l-24.48,6.4a7.68,7.68,0,0,1-1.36.19c-.26,0-.6,0-1,0a22.34,22.34,0,0,0-5.48.16v.1c.38.15.84.27,1.28.4,1,.28,1.59.45,1.85.79a1,1,0,0,1,.18.94c-.14.48-.61.84-1.44,1.08-2,.57-6.22,1.64-8.83,2.06a62,62,0,0,0,8.51-.88.51.51,0,0,1,.5.23.5.5,0,0,1,0,.56l-.11.16a.52.52,0,0,1-.27.19c-2.46.7-7.2,1.83-9.85,2.3a70.5,70.5,0,0,0,9.56-1,.5.5,0,0,1,.53.28.62.62,0,0,1,0,.48.53.53,0,0,1-.29.33c-2.09.59-5.55,1.35-7.87,1.72a64.91,64.91,0,0,0,9-1,.52.52,0,0,1,.41.11.67.67,0,0,1,.23.49c0,.16-.06.36-.21.43a16.08,16.08,0,0,1-4.43,1.21s0,.06.06.08a74.72,74.72,0,0,0,8.49-1.05l2.82-.5,28.2-6a6,6,0,0,0,4.06-8.67l-3.47-6.6a.51.51,0,0,1,.22-.68.5.5,0,0,1,.67.21l3.46,6.61a7,7,0,0,1-4.73,10.1l-28.21,6.06-2.84.51a73,73,0,0,1-8.66,1Z"/><path class="cls-1" d="M159.86,109.56s-1.13,2.38,0,2.32.35-1.16.35-1.16"/><path d="M159.82,112.38a.9.9,0,0,1-.78-.4c-.47-.69.1-2.07.37-2.64a.49.49,0,0,1,.66-.23.49.49,0,0,1,.24.66c-.07.15-.13.31-.19.46a.48.48,0,0,1,.5.2,1.5,1.5,0,0,1,.26,1.39,1.07,1.07,0,0,1-1,.56Zm.05-1.27a.88.88,0,0,0,0,.33l.15-.1S159.93,111.23,159.87,111.11Z"/><path d="M139.19,91.69s7.75,1.72,14.42-1.54L152.06,87Z"/><path class="cls-1" d="M127.56,55a32.84,32.84,0,0,1,19.38,14.14s4.92,6.08,6.8,16.6c0,0-6.21,5.76-16.89,5.76,0,0-2-.39-4.91-11.47"/><path d="M136.85,92c-.48-.08-2.59-1-5.4-11.84l1-.25c2.43,9.37,4.25,10.9,4.54,11.09A26.28,26.28,0,0,0,153.2,85.5a39,39,0,0,0-6.65-16.1,32.74,32.74,0,0,0-19.12-14l.26-1a33.64,33.64,0,0,1,19.69,14.38c.15.17,5,6.22,6.86,16.75l0,.27-.21.18C153.83,86.29,147.6,92,136.85,92Z"/><rect x="121.61" y="97.31" width="23.29" height="1" transform="translate(28.68 225.83) rotate(-87.03)"/><path class="cls-1" d="M105.55,42.15,104,53a5.57,5.57,0,0,0,3.82,6.13,5.24,5.24,0,0,0,2.82.06,5.58,5.58,0,0,0,4.11-6.12l-1.27-10.38A10.77,10.77,0,0,1,105.55,42.15Z"/><path d="M109.35,59.85a5.71,5.71,0,0,1-1.64-.24,6.09,6.09,0,0,1-4.17-6.68l1.61-11.55.63.33a10.42,10.42,0,0,0,7.56.51l.59-.21,1.34,11a6.07,6.07,0,0,1-4.48,6.67A5.92,5.92,0,0,1,109.35,59.85Zm-3.4-17-1.42,10.17A5.07,5.07,0,0,0,108,58.65a4.69,4.69,0,0,0,2.55.05,5.07,5.07,0,0,0,3.73-5.57l-1.19-9.79A11.33,11.33,0,0,1,106,42.9Z"/><path d="M113.9,47.07s-3.83.71-5.54-1.15a12.68,12.68,0,0,1-2.42-3.74l7.55,0Z"/><circle class="cls-1" cx="110.2" cy="32.55" r="10.67"/><path d="M110.2,43.71a11.17,11.17,0,1,1,11.16-11.16A11.17,11.17,0,0,1,110.2,43.71Zm0-21.33a10.17,10.17,0,1,0,10.16,10.17A10.18,10.18,0,0,0,110.2,22.38Z"/><path d="M103.32,27.58S98.19,22.3,101.65,17s12,1.41,12,1.41.26-3.84,5.52-2.56c0,0,3.78.87.89,7.05,0,0,4.74-3.5,5.64,1.33,0,0,1,6-5.13,11.3,0,0-.38-1.64-1-1.3s-1.16,1.25-2,1.3-.65-8-.65-8Z"/><path class="cls-1" d="M115.79,21.74a.25.25,0,0,1-.24-.18,5.65,5.65,0,0,0-1.84-2.9.25.25,0,0,1-.06-.35.24.24,0,0,1,.34-.06,6.08,6.08,0,0,1,2,3.17.25.25,0,0,1-.17.31Z"/><path d="M111.26,16.87a7.07,7.07,0,0,0-8.62-1.8s-3.68,2.22-2.52,7.87c0,0-4.75-1.06-5.65,3.77,0,0-1,3.55,5.13,8.86,0,0,.39-1.64,1-1.3s1.15,1.25,2.05,1.3.64-8,.64-8"/><path class="cls-1" d="M118.62,24.3a.2.2,0,0,1-.11,0,.24.24,0,0,1-.12-.33c1.61-3.32-.22-5.23-.3-5.31a.25.25,0,0,1,0-.36.25.25,0,0,1,.35,0s2.17,2.23.4,5.88A.24.24,0,0,1,118.62,24.3Z"/><path class="cls-1" d="M105.51,24.86h0c-3.68-.14-3.78-5.29-3.78-5.34a.25.25,0,0,1,.25-.25h0a.25.25,0,0,1,.25.24s.09,4.73,3.3,4.85a.25.25,0,0,1,0,.5Z"/><path class="cls-1" d="M121.89,33.22a.2.2,0,0,1-.11,0,.25.25,0,0,1-.11-.33c2.42-4.76,2.32-6.73,2-7.49a.9.9,0,0,0-.39-.53.25.25,0,0,1-.13-.32.24.24,0,0,1,.31-.14,1.23,1.23,0,0,1,.66.76c.4,1,.36,3.2-2.06,7.94A.24.24,0,0,1,121.89,33.22Z"/><path class="cls-1" d="M99,33.22a.24.24,0,0,1-.22-.14c-2.42-4.74-2.45-6.93-2.06-7.94a1.23,1.23,0,0,1,.66-.76.24.24,0,0,1,.32.15.24.24,0,0,1-.14.31.9.9,0,0,0-.39.53c-.27.76-.37,2.73,2,7.49a.23.23,0,0,1-.11.33A.2.2,0,0,1,99,33.22Z"/><path d="M130.29,134.73l-13.13-2.08a15.84,15.84,0,0,0-4-.12l-5.42.51a16,16,0,0,0-9,3.9l-5.4,4.74V126.94h37.41Z"/><path class="cls-1" d="M118.49,35.17s1.17-3.61,2.37-2.62c3,2.46-.92,4.64-.92,4.64"/><path d="M119.94,37.69a.51.51,0,0,1-.44-.26.5.5,0,0,1,.2-.68c.46-.26,1.69-1.16,1.78-2.15a2,2,0,0,0-.94-1.67c-.08-.07-.11-.06-.14,0-.42.12-1.08,1.36-1.43,2.44a.5.5,0,0,1-.63.32A.49.49,0,0,1,118,35c.14-.45.94-2.75,2.1-3.09a1.13,1.13,0,0,1,1.06.24,2.93,2.93,0,0,1,1.29,2.53c-.15,1.72-2.2,2.89-2.29,2.93A.42.42,0,0,1,119.94,37.69Z"/><path class="cls-1" d="M101.73,35.17s-1.16-3.61-2.37-2.62c-3,2.46.93,4.64.93,4.64"/><path d="M100.29,37.69a.45.45,0,0,1-.25-.07c-.08,0-2.13-1.21-2.29-2.93a3,3,0,0,1,1.3-2.53,1.12,1.12,0,0,1,1.06-.24c1.16.34,2,2.64,2.1,3.09a.49.49,0,0,1-.32.63.5.5,0,0,1-.63-.32c-.35-1.08-1-2.32-1.43-2.44,0,0-.06,0-.15,0a2,2,0,0,0-.93,1.67c.09,1,1.31,1.89,1.78,2.15a.5.5,0,0,1,.19.68A.49.49,0,0,1,100.29,37.69Z"/><polyline class="cls-1" points="71.42 107.36 81.16 90.23 69.54 84.81 61.55 100.05"/><path d="M71.42,107.86a.42.42,0,0,1-.24-.07.49.49,0,0,1-.19-.68l9.46-16.65-10.69-5L62,100.28a.5.5,0,1,1-.88-.47l8-15.24a.5.5,0,0,1,.65-.22l11.62,5.43a.51.51,0,0,1,.26.3.47.47,0,0,1,0,.4l-9.73,17.13A.5.5,0,0,1,71.42,107.86Z"/><path class="cls-1" d="M68.72,104.84l24.49,6.39a6.23,6.23,0,0,0,1.24.18c1.13,0,4.63-.35,6.6.13a.56.56,0,0,1,.07,1.06c-1,.4-2.63.66-2.91,1,0,0-.64.75,1,1.23,1.86.55,6.11,1.62,8.77,2a.47.47,0,0,1-.07.93,57.47,57.47,0,0,1-8.6-.82l.12.16c2.53.72,7.26,1.84,9.79,2.29a.47.47,0,0,1-.08.93,64.16,64.16,0,0,1-9.64-.92l-.06.11c2.11.59,5.55,1.34,7.82,1.71a.47.47,0,0,1-.07.93,58.3,58.3,0,0,1-9.11-.91l-.12.1a15.25,15.25,0,0,0,4.28,1.15c.59.09.47,1.09-.12,1.06a72.84,72.84,0,0,1-8.61-1l-2.81-.51-28.22-6a6.52,6.52,0,0,1-4.39-9.39l3.46-6.6"/><path d="M102.14,124.13h0a73.65,73.65,0,0,1-8.67-1l-2.81-.5-28.23-6.07a7,7,0,0,1-4.74-10.1l3.47-6.61a.5.5,0,1,1,.88.47l-3.46,6.6a6,6,0,0,0,4.06,8.67l28.21,6.06,2.8.49a72.57,72.57,0,0,0,8.54,1s0-.07,0-.1a14.5,14.5,0,0,1-4.39-1.17.5.5,0,0,1-.27-.39.49.49,0,0,1,.18-.44.84.84,0,0,1,.52-.2,60.51,60.51,0,0,0,8.9.9h.13a66.87,66.87,0,0,1-7.88-1.66.47.47,0,0,1-.32-.28.5.5,0,0,1,0-.43c.1-.19.36-.42.58-.38a64.13,64.13,0,0,0,9.55.92c-2.65-.41-7.38-1.54-9.84-2.24a.52.52,0,0,1-.27-.19l-.11-.16a.5.5,0,0,1,.48-.79,58.13,58.13,0,0,0,8.52.82,77.51,77.51,0,0,1-8.84-2c-.83-.24-1.3-.6-1.44-1.08a1.07,1.07,0,0,1,.19-1c.25-.32.84-.49,1.84-.77.44-.13.9-.25,1.28-.4V112a22.36,22.36,0,0,0-5.48-.16l-1,0a7.41,7.41,0,0,1-1.37-.19l-24.49-6.4a.5.5,0,0,1-.36-.61.51.51,0,0,1,.61-.36l24.48,6.4a5.89,5.89,0,0,0,1.14.16l.93,0a23.37,23.37,0,0,1,5.77.19,1.05,1.05,0,0,1,.8,1,1,1,0,0,1-.67,1c-.41.15-.9.29-1.37.42a5.91,5.91,0,0,0-1.34.46s.07.23.76.43a88.39,88.39,0,0,0,8.71,2,1,1,0,0,1,.81,1,1,1,0,0,1-1,.89c-.64,0-1.3,0-2,0,1.26.28,2.44.52,3.37.69a1,1,0,0,1-.17,1.92c-.49,0-1,0-1.55,0a.93.93,0,0,1,.56,1,1,1,0,0,1-1,.89,40.21,40.21,0,0,1-4.22-.23,1.09,1.09,0,0,1,.15.68A1,1,0,0,1,102.14,124.13Z"/><path class="cls-1" d="M60.49,109.56s1.13,2.38,0,2.32-.36-1.16-.36-1.16"/><path d="M60.53,112.38h-.06a1.07,1.07,0,0,1-1-.56,1.5,1.5,0,0,1,.26-1.39.47.47,0,0,1,.5-.2c-.06-.16-.12-.31-.19-.46a.5.5,0,0,1,.9-.43c.27.57.84,2,.37,2.64A.9.9,0,0,1,60.53,112.38Zm-.15-1h.14a.9.9,0,0,0,0-.29,1.14,1.14,0,0,0-.11.28Z"/><path d="M81.16,91.69s-7.75,1.72-14.42-1.54L68.29,87Z"/><path class="cls-1" d="M92.79,55A32.84,32.84,0,0,0,73.41,69.09s-4.92,6.08-6.81,16.6a26.19,26.19,0,0,0,16.89,5.76s2.05-.39,4.92-11.47"/><path d="M83.56,91.94c-10.82,0-17-5.65-17.3-5.89l-.2-.18,0-.27C68,75.07,72.82,69,73,68.77a33.61,33.61,0,0,1,19.63-14.3l.27,1a32.66,32.66,0,0,0-19.07,13.9,39.24,39.24,0,0,0-6.7,16.17A26.28,26.28,0,0,0,83.39,91c.29-.19,2.11-1.72,4.54-11.09l1,.25C86.09,90.94,84,91.87,83.59,91.94Z"/><rect x="86.59" y="86.17" width="1" height="23.29" transform="translate(-4.92 4.61) rotate(-2.95)"/><rect class="cls-1" x="23.58" y="121.47" width="172.87" height="6.42"/><path d="M196.44,128.39H23.58a.5.5,0,0,1-.5-.5v-6.42a.5.5,0,0,1,.5-.5H196.44a.5.5,0,0,1,.5.5v6.42A.5.5,0,0,1,196.44,128.39Zm-172.36-1H195.94V122H24.08Z"/><path class="cls-1" d="M86.52,79.91h49a3.25,3.25,0,0,1,3.25,3.25v31.93a1.63,1.63,0,0,1-1.63,1.63H84.89a1.63,1.63,0,0,1-1.63-1.63V83.16A3.25,3.25,0,0,1,86.52,79.91Z"/><path d="M137.13,117.22H84.89a2.13,2.13,0,0,1-2.13-2.13V83.16a3.76,3.76,0,0,1,3.76-3.75h49a3.76,3.76,0,0,1,3.76,3.75v31.93A2.13,2.13,0,0,1,137.13,117.22ZM86.52,80.41a2.76,2.76,0,0,0-2.76,2.75v31.93a1.14,1.14,0,0,0,1.13,1.13h52.24a1.14,1.14,0,0,0,1.13-1.13V83.16a2.76,2.76,0,0,0-2.76-2.75Z"/><rect class="cls-1" x="83.26" y="116.72" width="55.49" height="4.99" rx="1.63"/><path d="M137.13,122.21H84.89a2.14,2.14,0,0,1-2.13-2.13v-1.73a2.13,2.13,0,0,1,2.13-2.13h52.24a2.13,2.13,0,0,1,2.13,2.13v1.73A2.14,2.14,0,0,1,137.13,122.21Zm-52.24-5a1.13,1.13,0,0,0-1.13,1.13v1.73a1.14,1.14,0,0,0,1.13,1.13h52.24a1.14,1.14,0,0,0,1.13-1.13v-1.73a1.13,1.13,0,0,0-1.13-1.13Z"/><circle cx="111.01" cy="99.16" r="6.36"/><path d="M109.13,63.81a8.33,8.33,0,0,1-6.49-2.57c-3.09-3.41-2.47-8.93-2.44-9.17a.5.5,0,0,1,1,.12c0,.06-.59,5.31,2.2,8.39a7.5,7.5,0,0,0,6,2.23,7.32,7.32,0,0,0,5.82-2.46c2.61-3.19,1.68-8.48,1.67-8.54a.5.5,0,0,1,.4-.58.49.49,0,0,1,.58.4c0,.24,1,5.8-1.87,9.35a8.26,8.26,0,0,1-6.58,2.83Z"/><path class="cls-1" d="M187.38,110.38s1-2.67,3.27-1.32c2.61,1.55-3.27,6.69-3.27,6.69v-1.67s3.08-2.72,2.39-3.52c-.43-.5-2.39,1.14-2.39,1.14Z"/><path d="M187.38,116.25a.54.54,0,0,1-.21,0,.49.49,0,0,1-.29-.45v-1.67a.49.49,0,0,1,.17-.38,9.79,9.79,0,0,0,2.3-2.7,7.63,7.63,0,0,0-1.65,1.08.51.51,0,0,1-.53.07.49.49,0,0,1-.29-.45v-1.32a.47.47,0,0,1,0-.17,3.38,3.38,0,0,1,1.77-1.9,2.57,2.57,0,0,1,2.23.32,1.77,1.77,0,0,1,.9,1.39c.21,2.27-3.66,5.72-4.1,6.1A.51.51,0,0,1,187.38,116.25Zm.5-2v.3c1.42-1.41,3-3.39,2.93-4.49a.73.73,0,0,0-.41-.61,1.61,1.61,0,0,0-1.38-.25,2.35,2.35,0,0,0-1.14,1.23v.2c1.1-.77,1.86-.92,2.27-.45C191,111.22,189.17,113.14,187.88,114.3Z"/><path class="cls-1" d="M175.29,106.77h11.09a1,1,0,0,1,1,1v10.61a3,3,0,0,1-3,3h-7.09a3,3,0,0,1-3-3V107.77A1,1,0,0,1,175.29,106.77Z"/><path d="M184.38,121.88h-7.09a3.5,3.5,0,0,1-3.5-3.5V107.77a1.5,1.5,0,0,1,1.5-1.5h11.09a1.5,1.5,0,0,1,1.5,1.5v10.61A3.5,3.5,0,0,1,184.38,121.88Zm-9.09-14.61a.5.5,0,0,0-.5.5v10.61a2.5,2.5,0,0,0,2.5,2.5h7.09a2.5,2.5,0,0,0,2.5-2.5V107.77a.5.5,0,0,0-.5-.5Z"/><path d="M200.08,218.68H2.94a.5.5,0,1,1,0-1H200.08a.5.5,0,0,1,0,1Z"/><path d="M157.17,218.37H65a.5.5,0,0,1-.5-.5.5.5,0,0,1,.5-.5h92.19a.5.5,0,0,1,.5.5A.5.5,0,0,1,157.17,218.37Z"/><path d="M14,163.08a6.63,6.63,0,0,0-6.11-5.18c-3-.1-5.64,2.07-7,4.62-.75,1.46-1.94,5.21.43,5.9s3-2.68,3.92-4.08a4.92,4.92,0,0,1,3.54-2.26,4.11,4.11,0,0,1,2.16.33,6.26,6.26,0,0,1,1.85,1.47.62.62,0,0,0,.88-.88,6.63,6.63,0,0,0-3-2,5.64,5.64,0,0,0-3.42.19,6.29,6.29,0,0,0-2.75,2,12.73,12.73,0,0,0-1.28,2.49c-.24.5-.84,1.87-1.62,1.48s-.37-1.76-.25-2.31a7.63,7.63,0,0,1,4.75-5.48,5.27,5.27,0,0,1,6.67,4c.16.79,1.37.45,1.2-.33Z"/><path d="M17.11,201.66h-.05a.51.51,0,0,1-.45-.55c.78-8.2-1.42-22.6-2.72-31.21-.34-2.17-.62-4.05-.79-5.36a3.34,3.34,0,0,0-.93-2,.5.5,0,0,1,.71-.71,4.34,4.34,0,0,1,1.21,2.55c.17,1.29.45,3.16.78,5.33,1.32,8.65,3.52,23.13,2.74,31.45A.51.51,0,0,1,17.11,201.66Z"/><path d="M22.18,158.41A5.31,5.31,0,0,1,28,154.2a7.37,7.37,0,0,1,5.47,5.13,3.86,3.86,0,0,1,.15,2.57c-.42.87-1.25-.06-1.52-.52-.47-.78-.72-1.66-1.16-2.45a6.26,6.26,0,0,0-2.5-2.42,5.81,5.81,0,0,0-3.68-.62A6.33,6.33,0,0,0,21.27,158a.62.62,0,0,0,.88.88,4.81,4.81,0,0,1,3.54-1.82,4.78,4.78,0,0,1,3.39,1.49,10.47,10.47,0,0,1,1.63,2.92c.43.89,1.09,1.9,2.17,2,2.7.29,2.19-3.45,1.6-5A8.53,8.53,0,0,0,28.14,153,6.55,6.55,0,0,0,21,158.08c-.17.78,1,1.12,1.2.33Z"/><path d="M20.91,201.66a.51.51,0,0,1-.5-.46c-1-10.56-.27-35.62.51-41.78a4.41,4.41,0,0,1,1.22-2.55.5.5,0,0,1,.71,0,.51.51,0,0,1,0,.71,3.29,3.29,0,0,0-.93,2c-.78,6.13-1.5,31.06-.51,41.57a.51.51,0,0,1-.45.55Z"/><path d="M19.29,201.66h-.05a.5.5,0,0,1-.45-.55c1-10.15-1.65-40.8-2.51-47.57a3.41,3.41,0,0,0-.93-2,.5.5,0,0,1,0-.71.5.5,0,0,1,.7,0,4.35,4.35,0,0,1,1.22,2.55c.86,6.79,3.48,37.57,2.51,47.78A.5.5,0,0,1,19.29,201.66Z"/><path d="M17.93,168.37a.5.5,0,0,1-.49-.41,83.29,83.29,0,0,0-3-9.61.5.5,0,0,1,.3-.64.5.5,0,0,1,.64.29,84.28,84.28,0,0,1,3,9.78.5.5,0,0,1-.41.59Z"/><path d="M15.58,160.39a.49.49,0,0,1-.48-.39c0-.21-1.28-5.12-6.17-4.71-2.78.24-4.71-.12-5.74-1.07a2.12,2.12,0,0,1-.75-1.54,2.33,2.33,0,0,1,.76-1.76c1-1,3-1.36,6-1.17,6.41.41,6.88,9.72,6.9,10.12a.49.49,0,0,1-.43.51Zm-6.06-6.13a6.17,6.17,0,0,1,5.06,2.53c-.66-2.57-2.14-5.83-5.47-6s-4.66.37-5.22.9a1.32,1.32,0,0,0-.45,1,1.14,1.14,0,0,0,.42.81c.57.51,1.89,1.07,5,.8Z"/><path d="M16.78,153.48s-6.61-4.58-4-5.54S17.21,151,16.78,153.48Z"/><path d="M16.78,154a.52.52,0,0,1-.29-.09c-1.19-.82-5-3.64-4.81-5.38a1.24,1.24,0,0,1,.92-1,2.65,2.65,0,0,1,2.76.53,6.5,6.5,0,0,1,1.91,5.57.5.5,0,0,1-.3.37A.43.43,0,0,1,16.78,154Zm-3.23-5.69a1.81,1.81,0,0,0-.6.11c-.27.1-.28.2-.28.23-.09.71,1.72,2.47,3.67,3.92a5.55,5.55,0,0,0-1.62-3.79A1.82,1.82,0,0,0,13.55,148.29Z"/><path d="M19.09,182.39s1.1-4.64,3.38-3.5S19.09,182.39,19.09,182.39Z"/><path d="M19.09,182.89a.55.55,0,0,1-.32-.12.5.5,0,0,1-.16-.5c.07-.32.78-3.15,2.36-3.89a1.93,1.93,0,0,1,1.72.06,1.22,1.22,0,0,1,.82,1.14c-.05,1.42-3.25,2.86-4.22,3.27A.71.71,0,0,1,19.09,182.89Zm2.67-3.68a.85.85,0,0,0-.37.08,4.08,4.08,0,0,0-1.49,2.18c1.46-.72,2.6-1.54,2.61-1.92,0,0-.07-.12-.27-.22A1.1,1.1,0,0,0,21.76,179.21Z"/><path d="M24.8,179.58a1.73,1.73,0,0,1-.6-.11c-.82-.32-1.37-1.25-1.68-2.85-.51-2.59-1.75-2.39-1.81-2.38a.5.5,0,0,1-.48-.81,4.47,4.47,0,0,1,3.21-1.58,3.13,3.13,0,0,1,2.38,1.63c1.81,2.83,1.89,4.46.28,5.63A2.26,2.26,0,0,1,24.8,179.58Zm-3.1-6.13.24.13a4.18,4.18,0,0,1,1.56,2.85c.31,1.59.8,2,1.06,2.11a1.06,1.06,0,0,0,1-.24c.6-.44,1.51-1.09-.53-4.28a2.18,2.18,0,0,0-1.61-1.17A2.63,2.63,0,0,0,21.7,173.45Z"/><path d="M20.88,167.25a.51.51,0,0,1-.5-.49l-.46-20.93a.5.5,0,1,1,1,0l.46,20.93a.5.5,0,0,1-.49.51Z"/><path d="M20.36,147.65c-1.93-3.46-9.53-.19-10.47-1.53-1.9-2.74,2.4-2.78,3.69-2.72a14.37,14.37,0,0,1,5.67,1.49h0a9.78,9.78,0,0,0-4.73-2.79c-1.29-.35-5.56-.85-5.67-2.67-.29-4.12,9.35,1.41,10.58,2.76-.64-1.64-4.85-9.32-1.45-10.57,2.8-1,1.51,7.51,2.62,8.8.94-1.59,2-4.72,3.34-6.13,2.87-3.13,5.44-2.14,3.39.22-1.82,2.1-4.68,5-5.27,8.25,1.58-1.12,2.69-2.48,4.39-3.25,1-.54,5.62-2.21,5.56,0-.18,2.7-8.25,3.1-9.83,5.1,1.4.7,3.62-.54,5.38-.26,1.7.11,4.5,1.5,1.81,2.81-2.57,1.07-6.9-2.25-9,.52"/><path d="M15.82,176.81c-2.15-1.48-5.68,2.69-6.62,2.17-1.93-1.06.6-2.34,1.37-2.69a9.6,9.6,0,0,1,3.79-.78h0a6.38,6.38,0,0,0-3.61-.26c-.87.17-3.53,1.13-4.14.08-1.37-2.34,5.94-1.9,7.06-1.47-.86-.78-5.59-4.08-4-5.81,1.38-1.39,3.1,4,4.13,4.42.09-1.21-.17-3.38.18-4.59.77-2.69,2.58-2.87,2.06-.87-.46,1.78-1.29,4.33-.69,6.42A19.34,19.34,0,0,1,17,170.22c.43-.61,2.67-2.95,3.27-1.65.69,1.65-4,4.25-4.3,5.9,1,0,2-1.39,3.1-1.74s3.09-.43,1.89,1.13c-1.21,1.39-4.73.69-5.17,2.95"/><path d="M21,165.34c-.39-2.58-5.84-2.32-6.1-3.37-.54-2.13,2.12-1.16,2.9-.83A9.72,9.72,0,0,1,21,163.38h0a6.41,6.41,0,0,0-2.28-2.82c-.71-.51-3.23-1.81-2.88-3,.77-2.61,5.45,3,5.89,4.15,0-1.16-.83-6.87,1.55-6.86,2,.06-.8,5-.42,6,1-.76,2.36-2.44,3.48-3,2.5-1.27,3.86-.06,2.05.92-1.62.88-4.06,2-5.17,3.88a19.12,19.12,0,0,1,3.47-1c.73-.1,4-.06,3.43,1.27-.73,1.63-5.81,0-7.25.88.71.75,2.37.5,3.39,1.08s2.43,2,.46,2.15-3.73-3-5.68-1.76"/><path d="M19.51,218.68c-8.62,0-13.57-3.85-13.57-10.57V204a2.5,2.5,0,0,1,2.5-2.5H30.58a2.5,2.5,0,0,1,2.5,2.5v4.07C33.08,214.83,28.13,218.68,19.51,218.68ZM8.44,202.54a1.5,1.5,0,0,0-1.5,1.5v4.07c0,3.57,1.63,9.57,12.57,9.57s12.57-6,12.57-9.57V204a1.5,1.5,0,0,0-1.5-1.5Z"/><rect class="cls-1" x="30.02" y="0.5" width="48.59" height="36.69" rx="7"/><path d="M71.61,37.69H37a7.52,7.52,0,0,1-7.5-7.5V7.5A7.51,7.51,0,0,1,37,0H71.61a7.5,7.5,0,0,1,7.5,7.5V30.19A7.51,7.51,0,0,1,71.61,37.69ZM37,1a6.51,6.51,0,0,0-6.5,6.5V30.19a6.51,6.51,0,0,0,6.5,6.5H71.61a6.51,6.51,0,0,0,6.5-6.5V7.5A6.51,6.51,0,0,0,71.61,1Z"/><polyline class="cls-1" points="43.33 13.85 37.95 19.86 44.41 24.52"/><path d="M44.41,25.51a1,1,0,0,1-.59-.18l-6.46-4.66a1,1,0,0,1-.16-1.48l5.39-6a1,1,0,0,1,1.49,1.33L39.44,19.7l5.55,4a1,1,0,0,1-.58,1.81Z"/><polyline class="cls-1" points="64.45 24.52 69.83 18.5 63.38 13.85"/><path d="M64.45,25.51a1,1,0,0,1-.67-.25,1,1,0,0,1-.07-1.41l4.64-5.19-5.56-4A1,1,0,1,1,64,13l6.46,4.66a1,1,0,0,1,.41.7,1,1,0,0,1-.25.78l-5.38,6A1,1,0,0,1,64.45,25.51Z"/><line class="cls-1" x1="57.34" y1="8.32" x2="47.72" y2="30.8"/><path d="M47.72,31.8a1.09,1.09,0,0,1-.39-.08,1,1,0,0,1-.53-1.31L56.42,7.93a1,1,0,1,1,1.84.78L48.64,31.19A1,1,0,0,1,47.72,31.8Z"/><rect class="cls-1" x="148.99" y="19.5" width="48.59" height="36.69" rx="7"/><path d="M190.59,56.69H156a7.52,7.52,0,0,1-7.5-7.5V26.5A7.51,7.51,0,0,1,156,19h34.6a7.51,7.51,0,0,1,7.5,7.5V49.19A7.52,7.52,0,0,1,190.59,56.69ZM156,20a6.51,6.51,0,0,0-6.5,6.5V49.19a6.51,6.51,0,0,0,6.5,6.5h34.6a6.51,6.51,0,0,0,6.5-6.5V26.5a6.51,6.51,0,0,0-6.5-6.5Z"/><path d="M156,19.5h34.59a7,7,0,0,1,7,7v3a0,0,0,0,1,0,0H149a0,0,0,0,1,0,0v-3a7,7,0,0,1,7-7Z"/><rect class="cls-1" x="157.51" y="23.08" width="33.23" height="3.91" rx="1"/><rect class="cls-2" x="159.31" y="36.85" width="30.46" height="11.77"/></g></g></svg>