<svg width="247" height="65" viewBox="0 0 247 65" fill="none" xmlns="http://www.w3.org/2000/svg">
<path d="M9.57133 38.0511V36.0625L25.5799 27.9091V31.0909L13.3 37.0071L13.3995 36.8082V37.3054L13.3 37.1065L25.5799 43.0227V46.2045L9.57133 38.0511ZM217.095 20.3523L208.892 50.8281H206.207L214.41 20.3523H217.095ZM237.426 38.0511L221.417 46.2045V43.0227L233.697 37.1065L233.597 37.3054V36.8082L233.697 37.0071L221.417 31.0909V27.9091L237.426 36.0625V38.0511Z" fill="#B8B8B8"/>
<path d="M63.2028 39.195C63.5061 39.195 63.7395 39.335 63.9028 39.615C64.0895 39.895 64.1828 40.28 64.1828 40.77C64.1828 41.68 63.9611 42.4033 63.5178 42.94C61.2078 45.7633 58.7461 47.175 56.1328 47.175C53.8695 47.175 52.0611 46.3 50.7078 44.55C49.3545 42.8 48.6778 40.2917 48.6778 37.025C48.6778 36.2317 48.7128 35.4383 48.7828 34.645C47.2428 34.925 45.5628 35.135 43.7428 35.275C42.5295 35.3683 41.7011 35.4267 41.2578 35.45C40.7911 37.83 40.1378 40.7467 39.2978 44.2C38.8078 46.23 37.8745 47.245 36.4978 47.245C35.0045 47.245 34.2578 46.5683 34.2578 45.215C34.2578 44.9117 34.3161 44.4917 34.4328 43.955C35.2261 40.7583 35.8561 38.0517 36.3228 35.835L34.6428 35.905C33.8728 35.905 33.3128 35.7767 32.9628 35.52C32.6128 35.24 32.4378 34.7967 32.4378 34.19C32.4378 33.42 32.6595 32.86 33.1028 32.51C33.5461 32.1367 34.2811 31.9267 35.3078 31.88L37.1628 31.81C37.7695 28.52 38.0728 26.0117 38.0728 24.285C38.0728 23.1883 37.9095 22.4417 37.5828 22.045C37.2561 21.6483 36.8245 21.45 36.2878 21.45C34.6545 21.45 32.8111 22.815 30.7578 25.545C30.4545 25.9417 30.1161 26.14 29.7428 26.14C29.4161 26.14 29.1361 25.9883 28.9028 25.685C28.6695 25.3817 28.5528 24.9967 28.5528 24.53C28.5528 23.8067 28.8445 23.0367 29.4278 22.22C30.4545 20.7967 31.7495 19.63 33.3128 18.72C34.8761 17.7867 36.4628 17.32 38.0728 17.32C39.5895 17.32 40.7561 17.845 41.5728 18.895C42.4128 19.9217 42.8328 21.5317 42.8328 23.725C42.8328 25.6617 42.5528 28.2867 41.9928 31.6L45.4228 31.425C46.8928 31.355 48.1528 31.2383 49.2028 31.075C49.6228 28.5083 50.2645 26.105 51.1278 23.865C51.9911 21.625 53.0645 19.805 54.3478 18.405C55.6311 17.005 57.0661 16.305 58.6528 16.305C59.8195 16.305 60.7411 16.7717 61.4178 17.705C62.0945 18.615 62.4328 19.8167 62.4328 21.31C62.4328 27.0967 59.4811 31.11 53.5778 33.35C53.5078 34.2833 53.4728 35.2517 53.4728 36.255C53.4728 38.705 53.7761 40.4433 54.3828 41.47C54.9895 42.4967 55.8411 43.01 56.9378 43.01C57.8945 43.01 58.7695 42.765 59.5628 42.275C60.3561 41.7617 61.2545 40.8983 62.2578 39.685C62.5378 39.3583 62.8528 39.195 63.2028 39.195ZM58.4778 19.35C57.9645 19.35 57.4161 19.8167 56.8328 20.75C56.2728 21.6833 55.7361 22.955 55.2228 24.565C54.7095 26.175 54.3011 27.9367 53.9978 29.85C55.8645 29.08 57.2411 27.9833 58.1278 26.56C59.0145 25.1367 59.4578 23.305 59.4578 21.065C59.4578 20.5283 59.3645 20.1083 59.1778 19.805C58.9911 19.5017 58.7578 19.35 58.4778 19.35ZM65.6544 47.175C64.2078 47.175 63.0528 46.65 62.1894 45.6C61.3261 44.55 60.8944 43.1733 60.8944 41.47C60.8944 39.6033 61.3261 37.8417 62.1894 36.185C63.0528 34.505 64.1961 33.1633 65.6194 32.16C67.0661 31.1333 68.5944 30.62 70.2044 30.62C70.7178 30.62 71.0561 30.725 71.2194 30.935C71.4061 31.1217 71.5578 31.4717 71.6744 31.985C72.1644 31.8917 72.6778 31.845 73.2144 31.845C74.3578 31.845 74.9294 32.2533 74.9294 33.07C74.9294 33.56 74.7544 34.7267 74.4044 36.57C73.8678 39.2533 73.5994 41.12 73.5994 42.17C73.5994 42.52 73.6811 42.8 73.8444 43.01C74.0311 43.22 74.2644 43.325 74.5444 43.325C74.9878 43.325 75.5244 43.045 76.1544 42.485C76.7844 41.9017 77.6361 40.9683 78.7094 39.685C78.9894 39.3583 79.3044 39.195 79.6544 39.195C79.9578 39.195 80.1911 39.335 80.3544 39.615C80.5411 39.895 80.6344 40.28 80.6344 40.77C80.6344 41.7033 80.4128 42.4267 79.9694 42.94C79.0128 44.13 77.9978 45.1333 76.9244 45.95C75.8511 46.7667 74.8128 47.175 73.8094 47.175C73.0394 47.175 72.3278 46.9183 71.6744 46.405C71.0444 45.8683 70.5661 45.145 70.2394 44.235C69.0261 46.195 67.4978 47.175 65.6544 47.175ZM66.9144 43.64C67.4278 43.64 67.9178 43.3367 68.3844 42.73C68.8511 42.1233 69.1894 41.3183 69.3994 40.315L70.6944 33.875C69.7144 33.8983 68.8044 34.2717 67.9644 34.995C67.1478 35.695 66.4944 36.6283 66.0044 37.795C65.5144 38.9617 65.2694 40.1983 65.2694 41.505C65.2694 42.2283 65.4094 42.765 65.6894 43.115C65.9928 43.465 66.4011 43.64 66.9144 43.64ZM80.2749 47.175C79.3882 47.175 78.7582 46.7083 78.3849 45.775C78.0349 44.8417 77.8599 43.3483 77.8599 41.295C77.8599 38.2617 78.2915 35.38 79.1549 32.65C79.3649 31.9733 79.7032 31.4833 80.1699 31.18C80.6599 30.8533 81.3365 30.69 82.1999 30.69C82.6665 30.69 82.9932 30.7483 83.1799 30.865C83.3665 30.9817 83.4599 31.2033 83.4599 31.53C83.4599 31.9033 83.2849 32.7433 82.9349 34.05C82.7015 34.9833 82.5149 35.8 82.3749 36.5C82.2349 37.1767 82.1182 38.0283 82.0249 39.055C82.6549 37.235 83.4015 35.695 84.2649 34.435C85.1515 33.175 86.0499 32.2417 86.9599 31.635C87.8932 31.005 88.7682 30.69 89.5849 30.69C90.4015 30.69 90.9732 30.8767 91.2999 31.25C91.6499 31.6233 91.8249 32.195 91.8249 32.965C91.8249 33.7117 91.6032 35.065 91.1599 37.025C90.9732 37.865 90.8449 38.495 90.7749 38.915C91.9415 36.045 93.2365 33.9567 94.6599 32.65C96.0832 31.3433 97.4132 30.69 98.6499 30.69C100.167 30.69 100.925 31.4483 100.925 32.965C100.925 33.875 100.668 35.52 100.155 37.9C99.7115 39.93 99.4899 41.2717 99.4899 41.925C99.4899 42.8583 99.8282 43.325 100.505 43.325C100.972 43.325 101.52 43.045 102.15 42.485C102.803 41.9017 103.667 40.9683 104.74 39.685C105.02 39.3583 105.335 39.195 105.685 39.195C105.988 39.195 106.222 39.335 106.385 39.615C106.572 39.895 106.665 40.28 106.665 40.77C106.665 41.7033 106.443 42.4267 106 42.94C104.997 44.1767 103.912 45.1917 102.745 45.985C101.602 46.7783 100.295 47.175 98.8249 47.175C97.6349 47.175 96.7365 46.8367 96.1299 46.16C95.5232 45.46 95.2199 44.4567 95.2199 43.15C95.2199 42.4967 95.3832 41.33 95.7099 39.65C96.0132 38.18 96.1649 37.165 96.1649 36.605C96.1649 36.2317 96.0365 36.045 95.7799 36.045C95.4765 36.045 95.0449 36.4417 94.4849 37.235C93.9249 38.005 93.3649 39.0317 92.8049 40.315C92.2449 41.5983 91.7899 42.9517 91.4399 44.375C91.1832 45.495 90.8799 46.2417 90.5299 46.615C90.2032 46.9883 89.6665 47.175 88.9199 47.175C88.1499 47.175 87.5665 46.8133 87.1699 46.09C86.7965 45.3433 86.6099 44.445 86.6099 43.395C86.6099 42.5083 86.7265 41.225 86.9599 39.545C87.1465 38.0517 87.2399 37.0717 87.2399 36.605C87.2399 36.2317 87.1115 36.045 86.8549 36.045C86.5049 36.045 86.0615 36.465 85.5249 37.305C84.9882 38.145 84.4632 39.2183 83.9499 40.525C83.4599 41.8317 83.0632 43.115 82.7599 44.375C82.5032 45.4717 82.1999 46.2183 81.8499 46.615C81.5232 46.9883 80.9982 47.175 80.2749 47.175ZM120.616 39.195C120.92 39.195 121.153 39.335 121.316 39.615C121.503 39.895 121.596 40.28 121.596 40.77C121.596 41.6333 121.375 42.3567 120.931 42.94C119.835 44.3633 118.47 45.4833 116.836 46.3C115.226 47.1167 113.406 47.525 111.376 47.525C109.79 47.525 108.413 47.2917 107.246 46.825C106.08 46.335 105.181 45.6817 104.551 44.865C103.945 44.025 103.641 43.0917 103.641 42.065C103.641 40.525 104.26 39.16 105.496 37.97C106.733 36.78 108.506 35.6367 110.816 34.54L105.076 34.68C104.563 34.7033 104.166 34.5283 103.886 34.155C103.63 33.7583 103.501 33.2917 103.501 32.755C103.501 32.195 103.63 31.705 103.886 31.285C104.166 30.8417 104.54 30.62 105.006 30.62C106.08 30.62 107.515 30.7017 109.311 30.865C109.685 30.8883 110.361 30.935 111.341 31.005C112.345 31.075 113.185 31.11 113.861 31.11C114.095 31.11 114.538 31.0167 115.191 30.83C115.308 30.8067 115.53 30.7483 115.856 30.655C116.206 30.5617 116.498 30.515 116.731 30.515C117.105 30.515 117.408 30.6783 117.641 31.005C117.898 31.3317 118.026 31.8333 118.026 32.51C118.026 33.2567 117.851 33.84 117.501 34.26C117.151 34.68 116.603 35.0533 115.856 35.38C113.733 36.29 111.971 37.27 110.571 38.32C109.171 39.3467 108.471 40.3733 108.471 41.4C108.471 42.0533 108.775 42.59 109.381 43.01C109.988 43.43 110.886 43.64 112.076 43.64C113.383 43.64 114.701 43.3133 116.031 42.66C117.385 42.0067 118.598 41.015 119.671 39.685C119.951 39.3583 120.266 39.195 120.616 39.195ZM122.42 47.175C121.09 47.175 120.005 46.65 119.165 45.6C118.349 44.55 117.94 43.1733 117.94 41.47C117.94 39.6033 118.372 37.8417 119.235 36.185C120.099 34.505 121.242 33.1633 122.665 32.16C124.112 31.1333 125.64 30.62 127.25 30.62C127.764 30.62 128.102 30.725 128.265 30.935C128.452 31.1217 128.604 31.4717 128.72 31.985C129.164 31.8917 129.654 31.845 130.19 31.845C130.75 31.845 131.182 31.985 131.485 32.265C131.789 32.545 131.94 32.9417 131.94 33.455C131.94 33.9917 131.824 34.925 131.59 36.255C131.334 37.6783 131.135 39.0433 130.995 40.35C130.855 41.6333 130.785 43.08 130.785 44.69C130.785 45.5767 130.599 46.2183 130.225 46.615C129.875 46.9883 129.292 47.175 128.475 47.175C127.682 47.175 127.087 46.9883 126.69 46.615C126.317 46.2183 126.13 45.5883 126.13 44.725L126.165 44.165C125.442 46.1717 124.194 47.175 122.42 47.175ZM123.785 43.64C124.439 43.64 125.034 43.185 125.57 42.275C126.107 41.365 126.585 39.7433 127.005 37.41L127.67 33.875C126.714 33.8983 125.827 34.2717 125.01 34.995C124.194 35.695 123.54 36.6283 123.05 37.795C122.56 38.9617 122.315 40.1983 122.315 41.505C122.315 42.205 122.444 42.7417 122.7 43.115C122.98 43.465 123.342 43.64 123.785 43.64ZM168.433 40.63C168.783 40.49 169.075 40.42 169.308 40.42C169.682 40.42 169.962 40.56 170.148 40.84C170.335 41.12 170.428 41.4817 170.428 41.925C170.428 42.625 170.253 43.22 169.903 43.71C169.577 44.2 169.005 44.6433 168.188 45.04C166.812 45.6933 165.027 46.2183 162.833 46.615C160.64 46.9883 158.482 47.175 156.358 47.175C153.418 47.175 150.957 46.8483 148.973 46.195C146.99 45.5183 145.508 44.5967 144.528 43.43C143.572 42.2633 143.093 40.945 143.093 39.475C143.093 37.4683 143.735 35.765 145.018 34.365C146.325 32.9417 148.238 31.915 150.758 31.285C149.382 30.8883 148.32 30.1883 147.573 29.185C146.85 28.1817 146.488 27.0617 146.488 25.825C146.488 24.145 147.013 22.6633 148.063 21.38C149.137 20.0733 150.572 19.07 152.368 18.37C154.165 17.67 156.137 17.32 158.283 17.32C161.177 17.32 163.347 17.95 164.793 19.21C166.24 20.4467 166.963 22.0567 166.963 24.04C166.963 25.4167 166.707 26.5367 166.193 27.4C165.703 28.24 164.992 28.66 164.058 28.66C163.405 28.66 162.892 28.52 162.518 28.24C162.145 27.9367 161.958 27.4933 161.958 26.91C161.958 26.5133 162.017 26.0817 162.133 25.615C162.25 24.845 162.308 24.32 162.308 24.04C162.308 23.2 161.993 22.5233 161.363 22.01C160.733 21.4733 159.683 21.205 158.213 21.205C156.23 21.205 154.643 21.625 153.453 22.465C152.263 23.305 151.668 24.4367 151.668 25.86C151.668 26.9567 152.112 27.8667 152.998 28.59C153.908 29.29 155.378 29.675 157.408 29.745C157.922 29.7683 158.283 29.885 158.493 30.095C158.703 30.305 158.808 30.655 158.808 31.145C158.808 32.685 158.108 33.4667 156.708 33.49C154.772 33.5367 153.162 33.805 151.878 34.295C150.618 34.785 149.697 35.415 149.113 36.185C148.553 36.9317 148.273 37.7367 148.273 38.6C148.273 40.0467 148.95 41.1433 150.303 41.89C151.657 42.6133 153.803 42.975 156.743 42.975C158.68 42.975 160.722 42.7533 162.868 42.31C165.038 41.8433 166.893 41.2833 168.433 40.63ZM171.427 28.38C170.447 28.38 169.712 28.1583 169.222 27.715C168.732 27.2483 168.487 26.6067 168.487 25.79C168.487 24.9733 168.802 24.2967 169.432 23.76C170.086 23.2 170.891 22.92 171.847 22.92C172.711 22.92 173.411 23.13 173.947 23.55C174.484 23.97 174.752 24.565 174.752 25.335C174.752 26.2683 174.449 27.015 173.842 27.575C173.236 28.1117 172.431 28.38 171.427 28.38ZM177.727 39.265C178.031 39.265 178.264 39.4167 178.427 39.72C178.614 40 178.707 40.3617 178.707 40.805C178.707 41.3417 178.626 41.7617 178.462 42.065C178.299 42.3683 178.042 42.6367 177.692 42.87C176.059 43.9433 173.877 45.425 171.147 47.315C170.237 52.1683 169.059 55.9833 167.612 58.76C166.166 61.5367 164.322 62.925 162.082 62.925C160.869 62.925 159.901 62.5517 159.177 61.805C158.431 61.0817 158.057 60.125 158.057 58.935C158.057 57.2783 158.699 55.505 159.982 53.615C161.266 51.7483 163.681 49.4383 167.227 46.685L167.472 44.9C167.799 42.66 168.056 40.455 168.242 38.285C168.382 37.025 168.604 35.1467 168.907 32.65C169.001 31.9733 169.257 31.4833 169.677 31.18C170.097 30.8533 170.739 30.69 171.602 30.69C172.302 30.69 172.757 30.795 172.967 31.005C173.201 31.215 173.317 31.5067 173.317 31.88C173.317 32.9533 172.932 35.9167 172.162 40.77L171.812 43.185C173.679 41.785 175.382 40.5717 176.922 39.545C177.226 39.3583 177.494 39.265 177.727 39.265ZM162.467 59.53C163.074 59.53 163.739 58.8417 164.462 57.465C165.186 56.0883 165.862 53.8717 166.492 50.815C164.719 52.3317 163.447 53.6967 162.677 54.91C161.884 56.1467 161.487 57.2317 161.487 58.165C161.487 59.075 161.814 59.53 162.467 59.53ZM180.532 47.175C179.086 47.175 177.931 46.65 177.067 45.6C176.204 44.55 175.772 43.1733 175.772 41.47C175.772 39.6033 176.204 37.8417 177.067 36.185C177.931 34.505 179.074 33.1633 180.497 32.16C181.944 31.1333 183.472 30.62 185.082 30.62C185.596 30.62 185.934 30.725 186.097 30.935C186.284 31.1217 186.436 31.4717 186.552 31.985C187.042 31.8917 187.556 31.845 188.092 31.845C189.236 31.845 189.807 32.2533 189.807 33.07C189.807 33.56 189.632 34.7267 189.282 36.57C188.746 39.2533 188.477 41.12 188.477 42.17C188.477 42.52 188.559 42.8 188.722 43.01C188.909 43.22 189.142 43.325 189.422 43.325C189.866 43.325 190.402 43.045 191.032 42.485C191.662 41.9017 192.514 40.9683 193.587 39.685C193.867 39.3583 194.182 39.195 194.532 39.195C194.836 39.195 195.069 39.335 195.232 39.615C195.419 39.895 195.512 40.28 195.512 40.77C195.512 41.7033 195.291 42.4267 194.847 42.94C193.891 44.13 192.876 45.1333 191.802 45.95C190.729 46.7667 189.691 47.175 188.687 47.175C187.917 47.175 187.206 46.9183 186.552 46.405C185.922 45.8683 185.444 45.145 185.117 44.235C183.904 46.195 182.376 47.175 180.532 47.175ZM181.792 43.64C182.306 43.64 182.796 43.3367 183.262 42.73C183.729 42.1233 184.067 41.3183 184.277 40.315L185.572 33.875C184.592 33.8983 183.682 34.2717 182.842 34.995C182.026 35.695 181.372 36.6283 180.882 37.795C180.392 38.9617 180.147 40.1983 180.147 41.505C180.147 42.2283 180.287 42.765 180.567 43.115C180.871 43.465 181.279 43.64 181.792 43.64ZM204.638 43.185C205.151 43.1617 205.536 43.3483 205.793 43.745C206.073 44.1183 206.213 44.585 206.213 45.145C206.213 45.7283 206.073 46.2417 205.793 46.685C205.536 47.1283 205.174 47.35 204.708 47.35C203.868 47.35 203.074 47.3383 202.328 47.315C201.604 47.2917 200.963 47.2683 200.403 47.245C198.256 47.1517 196.739 47.105 195.853 47.105C195.549 47.105 195.106 47.21 194.523 47.42C193.776 47.6533 193.263 47.77 192.983 47.77C191.746 47.77 191.128 46.9767 191.128 45.39C191.128 44.3167 191.513 43.1033 192.283 41.75C193.053 40.3733 194.056 39.0433 195.293 37.76C196.529 36.4767 197.813 35.4033 199.143 34.54L194.208 34.68C193.694 34.7033 193.298 34.5283 193.018 34.155C192.761 33.7583 192.633 33.2917 192.633 32.755C192.633 32.195 192.761 31.705 193.018 31.285C193.298 30.8417 193.671 30.62 194.138 30.62C195.164 30.62 196.436 30.7017 197.953 30.865C198.209 30.8883 198.758 30.935 199.598 31.005C200.461 31.075 201.254 31.11 201.978 31.11C202.211 31.11 202.654 31.0167 203.308 30.83C203.424 30.8067 203.646 30.7483 203.973 30.655C204.323 30.5617 204.614 30.515 204.848 30.515C205.221 30.515 205.524 30.6783 205.758 31.005C206.014 31.3317 206.143 31.8333 206.143 32.51C206.143 33.2567 205.956 33.8517 205.583 34.295C205.233 34.7383 204.696 35.135 203.973 35.485C203.156 35.8583 202.199 36.5 201.103 37.41C200.006 38.32 198.968 39.335 197.988 40.455C197.008 41.5517 196.284 42.59 195.818 43.57L204.638 43.185Z" fill="white"/>
</svg>
