<svg width="294" height="61" viewBox="0 0 294 61" fill="none" xmlns="http://www.w3.org/2000/svg">
<path d="M0.538352 28.4943V25.9375L21.1207 15.4545V19.5455L5.33239 27.152L5.46023 26.8963V27.5355L5.33239 27.2798L21.1207 34.8864V38.9773L0.538352 28.4943ZM267.354 5.73863L256.807 44.9219H253.356L263.903 5.73863H267.354ZM293.494 28.4943L272.911 38.9773V34.8864L288.7 27.2798L288.572 27.5355V26.8963L288.7 27.152L272.911 19.5455V15.4545L293.494 25.9375V28.4943Z" fill="#474747"/>
<path d="M69.4931 29.965C69.8831 29.965 70.1831 30.145 70.3931 30.505C70.6331 30.865 70.7531 31.36 70.7531 31.99C70.7531 33.16 70.4681 34.09 69.8981 34.78C66.9281 38.41 63.7631 40.225 60.4031 40.225C57.4931 40.225 55.1681 39.1 53.4281 36.85C51.6881 34.6 50.8181 31.375 50.8181 27.175C50.8181 26.155 50.8631 25.135 50.9531 24.115C48.9731 24.475 46.8131 24.745 44.4731 24.925C42.9131 25.045 41.8481 25.12 41.2781 25.15C40.6781 28.21 39.8381 31.96 38.7581 36.4C38.1281 39.01 36.9281 40.315 35.1581 40.315C33.2381 40.315 32.2781 39.445 32.2781 37.705C32.2781 37.315 32.3531 36.775 32.5031 36.085C33.5231 31.975 34.3331 28.495 34.9331 25.645L32.7731 25.735C31.7831 25.735 31.0631 25.57 30.6131 25.24C30.1631 24.88 29.9381 24.31 29.9381 23.53C29.9381 22.54 30.2231 21.82 30.7931 21.37C31.3631 20.89 32.3081 20.62 33.6281 20.56L36.0131 20.47C36.7931 16.24 37.1831 13.015 37.1831 10.795C37.1831 9.385 36.9731 8.425 36.5531 7.915C36.1331 7.405 35.5781 7.15 34.8881 7.15C32.7881 7.15 30.4181 8.905 27.7781 12.415C27.3881 12.925 26.9531 13.18 26.4731 13.18C26.0531 13.18 25.6931 12.985 25.3931 12.595C25.0931 12.205 24.9431 11.71 24.9431 11.11C24.9431 10.18 25.3181 9.19 26.0681 8.14C27.3881 6.31 29.0531 4.81 31.0631 3.64C33.0731 2.44 35.1131 1.84 37.1831 1.84C39.1331 1.84 40.6331 2.515 41.6831 3.865C42.7631 5.185 43.3031 7.255 43.3031 10.075C43.3031 12.565 42.9431 15.94 42.2231 20.2L46.6331 19.975C48.5231 19.885 50.1431 19.735 51.4931 19.525C52.0331 16.225 52.8581 13.135 53.9681 10.255C55.0781 7.375 56.4581 5.035 58.1081 3.235C59.7581 1.435 61.6031 0.534998 63.6431 0.534998C65.1431 0.534998 66.3281 1.135 67.1981 2.335C68.0681 3.505 68.5031 5.05 68.5031 6.97C68.5031 14.41 64.7081 19.57 57.1181 22.45C57.0281 23.65 56.9831 24.895 56.9831 26.185C56.9831 29.335 57.3731 31.57 58.1531 32.89C58.9331 34.21 60.0281 34.87 61.4381 34.87C62.6681 34.87 63.7931 34.555 64.8131 33.925C65.8331 33.265 66.9881 32.155 68.2781 30.595C68.6381 30.175 69.0431 29.965 69.4931 29.965ZM63.4181 4.45C62.7581 4.45 62.0531 5.05 61.3031 6.25C60.5831 7.45 59.8931 9.085 59.2331 11.155C58.5731 13.225 58.0481 15.49 57.6581 17.95C60.0581 16.96 61.8281 15.55 62.9681 13.72C64.1081 11.89 64.6781 9.535 64.6781 6.655C64.6781 5.965 64.5581 5.425 64.3181 5.035C64.0781 4.645 63.7781 4.45 63.4181 4.45ZM72.6452 40.225C70.7852 40.225 69.3002 39.55 68.1902 38.2C67.0802 36.85 66.5252 35.08 66.5252 32.89C66.5252 30.49 67.0802 28.225 68.1902 26.095C69.3002 23.935 70.7702 22.21 72.6002 20.92C74.4602 19.6 76.4252 18.94 78.4952 18.94C79.1552 18.94 79.5902 19.075 79.8002 19.345C80.0402 19.585 80.2352 20.035 80.3852 20.695C81.0152 20.575 81.6752 20.515 82.3652 20.515C83.8352 20.515 84.5702 21.04 84.5702 22.09C84.5702 22.72 84.3452 24.22 83.8952 26.59C83.2052 30.04 82.8602 32.44 82.8602 33.79C82.8602 34.24 82.9652 34.6 83.1752 34.87C83.4152 35.14 83.7152 35.275 84.0752 35.275C84.6452 35.275 85.3352 34.915 86.1452 34.195C86.9552 33.445 88.0502 32.245 89.4302 30.595C89.7902 30.175 90.1952 29.965 90.6452 29.965C91.0352 29.965 91.3352 30.145 91.5452 30.505C91.7852 30.865 91.9052 31.36 91.9052 31.99C91.9052 33.19 91.6202 34.12 91.0502 34.78C89.8202 36.31 88.5152 37.6 87.1352 38.65C85.7552 39.7 84.4202 40.225 83.1302 40.225C82.1402 40.225 81.2252 39.895 80.3852 39.235C79.5752 38.545 78.9602 37.615 78.5402 36.445C76.9802 38.965 75.0152 40.225 72.6452 40.225ZM74.2652 35.68C74.9252 35.68 75.5552 35.29 76.1552 34.51C76.7552 33.73 77.1902 32.695 77.4602 31.405L79.1252 23.125C77.8652 23.155 76.6952 23.635 75.6152 24.565C74.5652 25.465 73.7252 26.665 73.0952 28.165C72.4652 29.665 72.1502 31.255 72.1502 32.935C72.1502 33.865 72.3302 34.555 72.6902 35.005C73.0802 35.455 73.6052 35.68 74.2652 35.68ZM91.4429 40.225C90.3029 40.225 89.4929 39.625 89.0129 38.425C88.5629 37.225 88.3379 35.305 88.3379 32.665C88.3379 28.765 88.8929 25.06 90.0029 21.55C90.2729 20.68 90.7079 20.05 91.3079 19.66C91.9379 19.24 92.8079 19.03 93.9179 19.03C94.5179 19.03 94.9379 19.105 95.1779 19.255C95.4179 19.405 95.5379 19.69 95.5379 20.11C95.5379 20.59 95.3129 21.67 94.8629 23.35C94.5629 24.55 94.3229 25.6 94.1429 26.5C93.9629 27.37 93.8129 28.465 93.6929 29.785C94.5029 27.445 95.4629 25.465 96.5729 23.845C97.7129 22.225 98.8679 21.025 100.038 20.245C101.238 19.435 102.363 19.03 103.413 19.03C104.463 19.03 105.198 19.27 105.618 19.75C106.068 20.23 106.293 20.965 106.293 21.955C106.293 22.915 106.008 24.655 105.438 27.175C105.198 28.255 105.033 29.065 104.943 29.605C106.443 25.915 108.108 23.23 109.938 21.55C111.768 19.87 113.478 19.03 115.068 19.03C117.018 19.03 117.993 20.005 117.993 21.955C117.993 23.125 117.663 25.24 117.003 28.3C116.433 30.91 116.148 32.635 116.148 33.475C116.148 34.675 116.583 35.275 117.453 35.275C118.053 35.275 118.758 34.915 119.568 34.195C120.408 33.445 121.518 32.245 122.898 30.595C123.258 30.175 123.663 29.965 124.113 29.965C124.503 29.965 124.803 30.145 125.013 30.505C125.253 30.865 125.373 31.36 125.373 31.99C125.373 33.19 125.088 34.12 124.518 34.78C123.228 36.37 121.833 37.675 120.333 38.695C118.863 39.715 117.183 40.225 115.293 40.225C113.763 40.225 112.608 39.79 111.828 38.92C111.048 38.02 110.658 36.73 110.658 35.05C110.658 34.21 110.868 32.71 111.288 30.55C111.678 28.66 111.873 27.355 111.873 26.635C111.873 26.155 111.708 25.915 111.378 25.915C110.988 25.915 110.433 26.425 109.713 27.445C108.993 28.435 108.273 29.755 107.553 31.405C106.833 33.055 106.248 34.795 105.798 36.625C105.468 38.065 105.078 39.025 104.628 39.505C104.208 39.985 103.518 40.225 102.558 40.225C101.568 40.225 100.818 39.76 100.308 38.83C99.8279 37.87 99.5879 36.715 99.5879 35.365C99.5879 34.225 99.7379 32.575 100.038 30.415C100.278 28.495 100.398 27.235 100.398 26.635C100.398 26.155 100.233 25.915 99.9029 25.915C99.4529 25.915 98.8829 26.455 98.1929 27.535C97.5029 28.615 96.8279 29.995 96.1679 31.675C95.5379 33.355 95.0279 35.005 94.6379 36.625C94.3079 38.035 93.9179 38.995 93.4679 39.505C93.0479 39.985 92.3729 40.225 91.4429 40.225ZM143.31 29.965C143.7 29.965 144 30.145 144.21 30.505C144.45 30.865 144.57 31.36 144.57 31.99C144.57 33.1 144.285 34.03 143.715 34.78C142.305 36.61 140.55 38.05 138.45 39.1C136.38 40.15 134.04 40.675 131.43 40.675C129.39 40.675 127.62 40.375 126.12 39.775C124.62 39.145 123.465 38.305 122.655 37.255C121.875 36.175 121.485 34.975 121.485 33.655C121.485 31.675 122.28 29.92 123.87 28.39C125.46 26.86 127.74 25.39 130.71 23.98L123.33 24.16C122.67 24.19 122.16 23.965 121.8 23.485C121.47 22.975 121.305 22.375 121.305 21.685C121.305 20.965 121.47 20.335 121.8 19.795C122.16 19.225 122.64 18.94 123.24 18.94C124.62 18.94 126.465 19.045 128.775 19.255C129.255 19.285 130.125 19.345 131.385 19.435C132.675 19.525 133.755 19.57 134.625 19.57C134.925 19.57 135.495 19.45 136.335 19.21C136.485 19.18 136.77 19.105 137.19 18.985C137.64 18.865 138.015 18.805 138.315 18.805C138.795 18.805 139.185 19.015 139.485 19.435C139.815 19.855 139.98 20.5 139.98 21.37C139.98 22.33 139.755 23.08 139.305 23.62C138.855 24.16 138.15 24.64 137.19 25.06C134.46 26.23 132.195 27.49 130.395 28.84C128.595 30.16 127.695 31.48 127.695 32.8C127.695 33.64 128.085 34.33 128.865 34.87C129.645 35.41 130.8 35.68 132.33 35.68C134.01 35.68 135.705 35.26 137.415 34.42C139.155 33.58 140.715 32.305 142.095 30.595C142.455 30.175 142.86 29.965 143.31 29.965ZM145.63 40.225C143.92 40.225 142.525 39.55 141.445 38.2C140.395 36.85 139.87 35.08 139.87 32.89C139.87 30.49 140.425 28.225 141.535 26.095C142.645 23.935 144.115 22.21 145.945 20.92C147.805 19.6 149.77 18.94 151.84 18.94C152.5 18.94 152.935 19.075 153.145 19.345C153.385 19.585 153.58 20.035 153.73 20.695C154.3 20.575 154.93 20.515 155.62 20.515C156.34 20.515 156.895 20.695 157.285 21.055C157.675 21.415 157.87 21.925 157.87 22.585C157.87 23.275 157.72 24.475 157.42 26.185C157.09 28.015 156.835 29.77 156.655 31.45C156.475 33.1 156.385 34.96 156.385 37.03C156.385 38.17 156.145 38.995 155.665 39.505C155.215 39.985 154.465 40.225 153.415 40.225C152.395 40.225 151.63 39.985 151.12 39.505C150.64 38.995 150.4 38.185 150.4 37.075L150.445 36.355C149.515 38.935 147.91 40.225 145.63 40.225ZM147.385 35.68C148.225 35.68 148.99 35.095 149.68 33.925C150.37 32.755 150.985 30.67 151.525 27.67L152.38 23.125C151.15 23.155 150.01 23.635 148.96 24.565C147.91 25.465 147.07 26.665 146.44 28.165C145.81 29.665 145.495 31.255 145.495 32.935C145.495 33.835 145.66 34.525 145.99 35.005C146.35 35.455 146.815 35.68 147.385 35.68ZM204.789 31.81C205.239 31.63 205.614 31.54 205.914 31.54C206.394 31.54 206.754 31.72 206.994 32.08C207.234 32.44 207.354 32.905 207.354 33.475C207.354 34.375 207.129 35.14 206.679 35.77C206.259 36.4 205.524 36.97 204.474 37.48C202.704 38.32 200.409 38.995 197.589 39.505C194.769 39.985 191.994 40.225 189.264 40.225C185.484 40.225 182.319 39.805 179.769 38.965C177.219 38.095 175.314 36.91 174.054 35.41C172.824 33.91 172.209 32.215 172.209 30.325C172.209 27.745 173.034 25.555 174.684 23.755C176.364 21.925 178.824 20.605 182.064 19.795C180.294 19.285 178.929 18.385 177.969 17.095C177.039 15.805 176.574 14.365 176.574 12.775C176.574 10.615 177.249 8.71 178.599 7.06C179.979 5.38 181.824 4.09 184.134 3.19C186.444 2.29 188.979 1.84 191.739 1.84C195.459 1.84 198.249 2.65 200.109 4.27C201.969 5.86 202.899 7.93 202.899 10.48C202.899 12.25 202.569 13.69 201.909 14.8C201.279 15.88 200.364 16.42 199.164 16.42C198.324 16.42 197.664 16.24 197.184 15.88C196.704 15.49 196.464 14.92 196.464 14.17C196.464 13.66 196.539 13.105 196.689 12.505C196.839 11.515 196.914 10.84 196.914 10.48C196.914 9.4 196.509 8.53 195.699 7.87C194.889 7.18 193.539 6.835 191.649 6.835C189.099 6.835 187.059 7.375 185.529 8.455C183.999 9.535 183.234 10.99 183.234 12.82C183.234 14.23 183.804 15.4 184.944 16.33C186.114 17.23 188.004 17.725 190.614 17.815C191.274 17.845 191.739 17.995 192.009 18.265C192.279 18.535 192.414 18.985 192.414 19.615C192.414 21.595 191.514 22.6 189.714 22.63C187.224 22.69 185.154 23.035 183.504 23.665C181.884 24.295 180.699 25.105 179.949 26.095C179.229 27.055 178.869 28.09 178.869 29.2C178.869 31.06 179.739 32.47 181.479 33.43C183.219 34.36 185.979 34.825 189.759 34.825C192.249 34.825 194.874 34.54 197.634 33.97C200.424 33.37 202.809 32.65 204.789 31.81ZM208.639 16.06C207.379 16.06 206.434 15.775 205.804 15.205C205.174 14.605 204.859 13.78 204.859 12.73C204.859 11.68 205.264 10.81 206.074 10.12C206.914 9.4 207.949 9.04 209.179 9.04C210.289 9.04 211.189 9.31 211.879 9.85C212.569 10.39 212.914 11.155 212.914 12.145C212.914 13.345 212.524 14.305 211.744 15.025C210.964 15.715 209.929 16.06 208.639 16.06ZM216.739 30.055C217.129 30.055 217.429 30.25 217.639 30.64C217.879 31 217.999 31.465 217.999 32.035C217.999 32.725 217.894 33.265 217.684 33.655C217.474 34.045 217.144 34.39 216.694 34.69C214.594 36.07 211.789 37.975 208.279 40.405C207.109 46.645 205.594 51.55 203.734 55.12C201.874 58.69 199.504 60.475 196.624 60.475C195.064 60.475 193.819 59.995 192.889 59.035C191.929 58.105 191.449 56.875 191.449 55.345C191.449 53.215 192.274 50.935 193.924 48.505C195.574 46.105 198.679 43.135 203.239 39.595L203.554 37.3C203.974 34.42 204.304 31.585 204.544 28.795C204.724 27.175 205.009 24.76 205.399 21.55C205.519 20.68 205.849 20.05 206.389 19.66C206.929 19.24 207.754 19.03 208.864 19.03C209.764 19.03 210.349 19.165 210.619 19.435C210.919 19.705 211.069 20.08 211.069 20.56C211.069 21.94 210.574 25.75 209.584 31.99L209.134 35.095C211.534 33.295 213.724 31.735 215.704 30.415C216.094 30.175 216.439 30.055 216.739 30.055ZM197.119 56.11C197.899 56.11 198.754 55.225 199.684 53.455C200.614 51.685 201.484 48.835 202.294 44.905C200.014 46.855 198.379 48.61 197.389 50.17C196.369 51.76 195.859 53.155 195.859 54.355C195.859 55.525 196.279 56.11 197.119 56.11ZM220.345 40.225C218.485 40.225 217 39.55 215.89 38.2C214.78 36.85 214.225 35.08 214.225 32.89C214.225 30.49 214.78 28.225 215.89 26.095C217 23.935 218.47 22.21 220.3 20.92C222.16 19.6 224.125 18.94 226.195 18.94C226.855 18.94 227.29 19.075 227.5 19.345C227.74 19.585 227.935 20.035 228.085 20.695C228.715 20.575 229.375 20.515 230.065 20.515C231.535 20.515 232.27 21.04 232.27 22.09C232.27 22.72 232.045 24.22 231.595 26.59C230.905 30.04 230.56 32.44 230.56 33.79C230.56 34.24 230.665 34.6 230.875 34.87C231.115 35.14 231.415 35.275 231.775 35.275C232.345 35.275 233.035 34.915 233.845 34.195C234.655 33.445 235.75 32.245 237.13 30.595C237.49 30.175 237.895 29.965 238.345 29.965C238.735 29.965 239.035 30.145 239.245 30.505C239.485 30.865 239.605 31.36 239.605 31.99C239.605 33.19 239.32 34.12 238.75 34.78C237.52 36.31 236.215 37.6 234.835 38.65C233.455 39.7 232.12 40.225 230.83 40.225C229.84 40.225 228.925 39.895 228.085 39.235C227.275 38.545 226.66 37.615 226.24 36.445C224.68 38.965 222.715 40.225 220.345 40.225ZM221.965 35.68C222.625 35.68 223.255 35.29 223.855 34.51C224.455 33.73 224.89 32.695 225.16 31.405L226.825 23.125C225.565 23.155 224.395 23.635 223.315 24.565C222.265 25.465 221.425 26.665 220.795 28.165C220.165 29.665 219.85 31.255 219.85 32.935C219.85 33.865 220.03 34.555 220.39 35.005C220.78 35.455 221.305 35.68 221.965 35.68ZM251.338 35.095C251.998 35.065 252.493 35.305 252.823 35.815C253.183 36.295 253.363 36.895 253.363 37.615C253.363 38.365 253.183 39.025 252.823 39.595C252.493 40.165 252.028 40.45 251.428 40.45C250.348 40.45 249.328 40.435 248.368 40.405C247.438 40.375 246.613 40.345 245.893 40.315C243.133 40.195 241.183 40.135 240.043 40.135C239.653 40.135 239.083 40.27 238.333 40.54C237.373 40.84 236.713 40.99 236.353 40.99C234.763 40.99 233.968 39.97 233.968 37.93C233.968 36.55 234.463 34.99 235.453 33.25C236.443 31.48 237.733 29.77 239.323 28.12C240.913 26.47 242.563 25.09 244.273 23.98L237.928 24.16C237.268 24.19 236.758 23.965 236.398 23.485C236.068 22.975 235.903 22.375 235.903 21.685C235.903 20.965 236.068 20.335 236.398 19.795C236.758 19.225 237.238 18.94 237.838 18.94C239.158 18.94 240.793 19.045 242.743 19.255C243.073 19.285 243.778 19.345 244.858 19.435C245.968 19.525 246.988 19.57 247.918 19.57C248.218 19.57 248.788 19.45 249.628 19.21C249.778 19.18 250.063 19.105 250.483 18.985C250.933 18.865 251.308 18.805 251.608 18.805C252.088 18.805 252.478 19.015 252.778 19.435C253.108 19.855 253.273 20.5 253.273 21.37C253.273 22.33 253.033 23.095 252.553 23.665C252.103 24.235 251.413 24.745 250.483 25.195C249.433 25.675 248.203 26.5 246.793 27.67C245.383 28.84 244.048 30.145 242.788 31.585C241.528 32.995 240.598 34.33 239.998 35.59L251.338 35.095Z" fill="white"/>
</svg>
